<svg width="140" height="16" viewBox="0 0 140 16" fill="none" xmlns="http://www.w3.org/2000/svg">
<path d="M11.98 0.359999C12.1667 0.359999 12.3933 0.486666 12.66 0.739999C12.94 0.979999 13.08 1.18667 13.08 1.36C13.08 2.17333 13.0533 3.28667 13 4.7C12.9867 5.04667 12.9733 5.46667 12.96 5.96C12.9467 6.44 12.94 7 12.94 7.64C12.94 9.66667 13.06 11.16 13.3 12.12C13.2867 12.44 13.16 12.6733 12.92 12.82C12.68 12.9533 12.44 13.02 12.2 13.02C11.6667 13.02 11.3133 12.8333 11.14 12.46C10.98 12.0867 10.9 11.5533 10.9 10.86C10.9 8.28667 10.9267 5.92 10.98 3.76C9.44667 5.46667 8.25333 6.9 7.4 8.06C7.4 8.06 7.28 8.14 7.04 8.3C6.81333 8.5 6.62667 8.6 6.48 8.6C6.13333 8.6 5.84667 8.51333 5.62 8.34C5.39333 8.16667 5.17333 7.91333 4.96 7.58L4 6.22C3.33333 5.28667 2.84667 4.58 2.54 4.1C2.54 5.32667 2.6 6.99333 2.72 9.1C2.81333 10.3133 2.86 11.2267 2.86 11.84C2.86 12.16 2.78 12.4333 2.62 12.66C2.46 12.8733 2.20667 12.98 1.86 12.98C1.51333 12.98 1.22667 12.9133 1 12.78C0.786667 12.6467 0.673333 12.4467 0.66 12.18C0.673333 11.9533 0.68 11.58 0.68 11.06C0.68 10.02 0.646667 8.75333 0.58 7.26L0.54 6.18L0.5 4.78C0.486667 4.36667 0.473333 3.88667 0.46 3.34C0.446667 2.78 0.44 2.17333 0.44 1.52C0.44 0.72 0.873333 0.32 1.74 0.32C2.00667 0.32 2.27333 0.386667 2.54 0.52C2.82 0.653333 3.02667 0.846666 3.16 1.1C3.26667 1.56667 3.66 2.34 4.34 3.42C5.02 4.5 5.68667 5.51333 6.34 6.46C6.92667 5.71333 7.40667 5.15333 7.78 4.78C8.42 4.12667 8.94667 3.52 9.36 2.96C9.78667 2.4 10.2467 1.72667 10.74 0.939999C10.86 0.78 11.0333 0.646666 11.26 0.539999C11.4867 0.419999 11.7267 0.359999 11.98 0.359999ZM26.5627 8.96C26.5627 9.70667 26.276 10.42 25.7027 11.1C25.1427 11.7667 24.4293 12.2933 23.5627 12.68C23.1893 12.8 22.716 12.9 22.1427 12.98C21.5693 13.0467 20.9893 13.0867 20.4027 13.1C19.256 13.1 18.1893 12.94 17.2027 12.62C17.0293 12.58 16.8293 12.4667 16.6027 12.28C16.376 12.0933 16.2693 11.8467 16.2827 11.54V10.86C16.2827 10.1133 16.2627 9.39333 16.2227 8.7C16.196 7.79333 16.1827 7.1 16.1827 6.62L16.1627 4.36C16.1627 3.56 16.1893 2.75333 16.2427 1.94C16.256 1.52667 16.4093 1.18 16.7027 0.9C17.0093 0.606666 17.3893 0.426666 17.8427 0.359999C18.016 0.346666 18.3293 0.34 18.7827 0.34L20.7027 0.359999C21.6227 0.359999 22.4427 0.479999 23.1627 0.72C23.8827 0.96 24.5027 1.34667 25.0227 1.88C25.196 2.08 25.336 2.34667 25.4427 2.68C25.5493 3 25.6027 3.31333 25.6027 3.62C25.5627 4.7 24.9427 5.58 23.7427 6.26C24.7027 6.38 25.4093 6.68 25.8627 7.16C26.3293 7.64 26.5627 8.24 26.5627 8.96ZM19.0027 5.78C19.136 5.76667 19.3493 5.76 19.6427 5.76H20.5427C20.9427 5.76 21.2227 5.74667 21.3827 5.72C22.7427 5.41333 23.4227 4.87333 23.4227 4.1C23.4227 3.9 23.3893 3.68667 23.3227 3.46C23.2693 3.23333 23.196 3.07333 23.1027 2.98C22.756 2.64667 22.4293 2.43333 22.1227 2.34C21.816 2.23333 21.3627 2.18 20.7627 2.18C19.6027 2.18 18.7693 2.24 18.2627 2.36L18.2827 5.8L19.0027 5.78ZM19.9227 11.42C21.3093 11.42 22.396 11.2467 23.1827 10.9C23.9827 10.5533 24.3827 9.87333 24.3827 8.86C24.3827 8.46 24.0893 8.13333 23.5027 7.88C22.916 7.61333 22.276 7.48 21.5827 7.48C20.7293 7.48 20.1293 7.5 19.7827 7.54C19.4893 7.56667 19.2893 7.58 19.1827 7.58C18.9827 7.58 18.8427 7.57333 18.7627 7.56C18.696 7.56 18.616 7.56 18.5227 7.56C18.4427 7.54667 18.356 7.54667 18.2627 7.56L18.2827 8.22C18.296 8.38 18.316 8.82 18.3427 9.54C18.3827 10.2467 18.3893 10.7467 18.3627 11.04C18.6693 11.1733 18.936 11.2733 19.1627 11.34C19.3893 11.3933 19.6427 11.42 19.9227 11.42ZM39.5794 11.88C39.7127 11.9467 39.8127 12.0333 39.8794 12.14C39.9594 12.2467 39.9994 12.4 39.9994 12.6C39.9994 12.8533 39.8994 13.0533 39.6994 13.2C39.4994 13.36 39.2794 13.44 39.0394 13.44C38.746 13.44 38.4127 13.3667 38.0394 13.22C37.2927 12.8867 36.5394 12.2067 35.7794 11.18C35.0194 10.14 34.186 8.77333 33.2794 7.08C32.5194 7.66667 31.746 8.21333 30.9594 8.72C30.9594 9 30.966 9.32667 30.9794 9.7C31.006 10.06 31.0194 10.3267 31.0194 10.5C31.046 11.2733 31.0594 11.7867 31.0594 12.04C31.0594 12.2667 30.986 12.4867 30.8394 12.7C30.6927 12.9 30.4727 13 30.1794 13C29.7527 13 29.446 12.9333 29.2594 12.8C29.0727 12.6533 28.9594 12.4467 28.9194 12.18C28.8127 11.5133 28.7594 10.8733 28.7594 10.26C28.7594 9.56667 28.8127 8.56667 28.9194 7.26C29.026 6.00667 29.0794 5.06667 29.0794 4.44C29.0794 4.2 29.066 3.85333 29.0394 3.4C29.026 3.04 28.986 2.70667 28.9194 2.4C28.866 1.97333 28.8394 1.67333 28.8394 1.5C28.8394 1.07333 28.9327 0.766666 29.1194 0.579999C29.306 0.393332 29.5927 0.299999 29.9794 0.299999C30.2727 0.299999 30.5127 0.386666 30.6994 0.559999C30.8994 0.72 31.0127 0.94 31.0394 1.22C31.106 2.35333 31.1394 3.22667 31.1394 3.84C31.126 4.17333 31.0994 4.65333 31.0594 5.28C31.0327 5.89333 31.006 6.28 30.9794 6.44C31.4327 6.18667 32.3194 5.46 33.6394 4.26C34.9727 3.04667 35.9194 2.09333 36.4794 1.4L36.7394 1.1C36.9527 0.819999 37.1327 0.626666 37.2794 0.52C37.426 0.413333 37.626 0.359999 37.8794 0.359999C38.1327 0.359999 38.3594 0.446666 38.5594 0.62C38.7727 0.779999 38.8794 0.973332 38.8794 1.2C38.8794 1.64 38.6527 2.08667 38.1994 2.54C37.0927 3.68667 35.986 4.75333 34.8794 5.74C35.666 7.22 36.4327 8.49333 37.1794 9.56C37.9394 10.6133 38.7394 11.3867 39.5794 11.88ZM43.9728 11.9C43.9728 12.2333 43.8395 12.5467 43.5728 12.84C43.3061 13.12 43.0128 13.26 42.6928 13.26C42.3195 13.26 41.9795 13.16 41.6728 12.96C41.3661 12.7467 41.2128 12.48 41.2128 12.16C41.2128 11.6533 41.3061 11.28 41.4928 11.04C41.6928 10.8 41.9861 10.68 42.3728 10.68C42.8261 10.68 43.2061 10.7933 43.5128 11.02C43.8195 11.2333 43.9728 11.5267 43.9728 11.9ZM55.1899 9.062C55.1825 8.94467 55.1789 8.76867 55.1789 8.534V8.116C55.1789 7.83733 55.1715 7.62833 55.1569 7.489C55.1422 7.37167 55.1349 7.06733 55.1349 6.576C55.1349 6.4 55.1862 6.26433 55.2889 6.169C55.3989 6.06633 55.5455 6.015 55.7289 6.015C55.9635 6.015 56.1212 6.06633 56.2019 6.169C56.2825 6.27167 56.3229 6.44033 56.3229 6.675V7.093L56.3119 8.303C56.3045 8.53767 56.3009 8.88967 56.3009 9.359L56.3119 10.261C56.3192 10.4003 56.3229 10.5947 56.3229 10.844C56.3229 11.042 56.3302 11.3243 56.3449 11.691C56.3595 12.0283 56.3669 12.2813 56.3669 12.45C56.3669 12.5893 56.3265 12.7177 56.2459 12.835C56.1725 12.9523 56.0699 13.011 55.9379 13.011C55.4245 13.011 55.1679 12.8387 55.1679 12.494C55.1679 12.3033 55.1752 12.0907 55.1899 11.856C55.2045 11.6873 55.2119 11.4307 55.2119 11.086C55.2119 10.844 55.2045 10.4957 55.1899 10.041C54.8452 10.0703 54.2512 10.085 53.4079 10.085C52.8799 10.085 52.4692 10.085 52.1759 10.085C51.8825 10.0777 51.6699 10.0593 51.5379 10.03L51.5269 11.295C51.5269 11.3757 51.5452 11.592 51.5819 11.944C51.6185 12.1787 51.6369 12.384 51.6369 12.56C51.6369 12.67 51.5709 12.7763 51.4389 12.879C51.3142 12.9743 51.1969 13.022 51.0869 13.022C50.8229 13.022 50.6432 12.9597 50.5479 12.835C50.4525 12.703 50.4049 12.505 50.4049 12.241L50.3939 11.372C50.3865 11.2693 50.3829 11.1263 50.3829 10.943C50.3829 10.6717 50.3755 10.3013 50.3609 9.832C50.3462 9.40667 50.3389 9.09867 50.3389 8.908C50.3389 8.622 50.3462 8.22233 50.3609 7.709C50.3755 7.225 50.3829 6.86567 50.3829 6.631C50.3829 6.39633 50.4415 6.23867 50.5589 6.158C50.6762 6.07733 50.8082 6.037 50.9549 6.037C51.3655 6.037 51.5709 6.17267 51.5709 6.444C51.5709 6.928 51.5599 7.39 51.5379 7.83C51.5232 8.38733 51.5159 8.79433 51.5159 9.051C51.7285 9.10233 51.9522 9.13533 52.1869 9.15C52.4215 9.16467 52.7515 9.172 53.1769 9.172C54.0422 9.172 54.7132 9.13533 55.1899 9.062ZM62.1021 9.469C62.1608 9.57167 62.2084 9.722 62.2451 9.92C62.2818 10.1107 62.3001 10.283 62.3001 10.437C62.3001 10.723 62.2378 11.13 62.1131 11.658C61.6071 12.582 60.8591 13.044 59.8691 13.044C59.5024 13.044 59.1284 12.923 58.7471 12.681C58.3658 12.439 58.1018 12.1603 57.9551 11.845C57.7571 11.2143 57.6581 10.8147 57.6581 10.646C57.6581 10.3527 57.7204 10.041 57.8451 9.711C57.9771 9.381 58.1421 9.095 58.3401 8.853C58.4648 8.68433 58.6884 8.54133 59.0111 8.424C59.3338 8.29933 59.6271 8.237 59.8911 8.237C60.4044 8.237 60.8408 8.336 61.2001 8.534C61.5594 8.72467 61.8601 9.03633 62.1021 9.469ZM61.1451 11.24C61.1818 11.1447 61.2001 10.899 61.2001 10.503C61.2001 10.2903 61.1598 10.0813 61.0791 9.876C61.0058 9.67067 60.8958 9.49467 60.7491 9.348C60.7344 9.33333 60.6941 9.31133 60.6281 9.282C60.5621 9.24533 60.4704 9.21233 60.3531 9.183C60.2431 9.14633 60.1148 9.128 59.9681 9.128C59.5574 9.128 59.2568 9.293 59.0661 9.623C58.8754 9.953 58.7801 10.327 58.7801 10.745C58.7801 10.8183 58.7984 10.9577 58.8351 11.163C58.8791 11.3683 58.9158 11.4967 58.9451 11.548C58.9671 11.5993 59.0221 11.6727 59.1101 11.768C59.2054 11.856 59.3191 11.9367 59.4511 12.01C59.5904 12.076 59.7334 12.109 59.8801 12.109C60.2101 12.109 60.4741 12.032 60.6721 11.878C60.8701 11.7167 61.0278 11.504 61.1451 11.24ZM63.3213 9.194C63.2186 9.17933 63.1343 9.13533 63.0683 9.062C63.0096 8.98867 62.9803 8.90067 62.9803 8.798C62.9803 8.74667 62.9913 8.69167 63.0133 8.633C63.0426 8.57433 63.0829 8.523 63.1343 8.479C63.2296 8.38367 63.4863 8.336 63.9043 8.336C63.9629 8.05 63.9923 7.76033 63.9923 7.467C63.9923 7.357 63.9886 7.26167 63.9813 7.181C63.9739 7.10033 63.9703 7.038 63.9703 6.994C63.9703 6.83267 64.0289 6.71167 64.1463 6.631C64.2709 6.55033 64.4103 6.51 64.5643 6.51C64.7549 6.51 64.8833 6.55767 64.9493 6.653C65.0226 6.74833 65.0593 6.92433 65.0593 7.181C65.0593 7.56233 65.0263 7.93633 64.9603 8.303C65.0776 8.303 65.2389 8.29567 65.4443 8.281C65.7229 8.26633 65.9246 8.259 66.0493 8.259C66.1739 8.259 66.2803 8.292 66.3683 8.358C66.4636 8.41667 66.5113 8.501 66.5113 8.611C66.5113 8.897 66.3829 9.06567 66.1263 9.117C65.8549 9.183 65.4333 9.22333 64.8613 9.238C64.8393 9.524 64.8283 9.83567 64.8283 10.173C64.8283 10.701 64.8613 11.1337 64.9273 11.471C64.9713 11.7057 65.0446 11.878 65.1473 11.988C65.2573 12.0907 65.4186 12.142 65.6313 12.142C65.7559 12.142 65.8843 12.109 66.0163 12.043C66.1043 11.9917 66.1849 11.966 66.2583 11.966C66.3609 11.966 66.4343 11.999 66.4783 12.065C66.5296 12.131 66.5553 12.219 66.5553 12.329C66.5553 12.5343 66.4453 12.7067 66.2253 12.846C66.0053 12.978 65.7229 13.044 65.3783 13.044C65.1656 13.044 64.9493 12.9927 64.7293 12.89C64.5166 12.7873 64.3369 12.659 64.1903 12.505C64.1683 12.483 64.1279 12.3987 64.0693 12.252C64.0106 12.1053 63.9593 11.9477 63.9153 11.779C63.8419 11.4343 63.8053 10.9503 63.8053 10.327C63.8053 10.0557 63.8199 9.69267 63.8493 9.238L63.3213 9.194ZM67.347 10.481C67.347 10.0337 67.446 9.66333 67.644 9.37C67.842 9.06933 68.117 8.787 68.469 8.523C68.5717 8.44967 68.744 8.38733 68.986 8.336C69.228 8.27733 69.4407 8.248 69.624 8.248C69.844 8.248 70.075 8.29567 70.317 8.391C70.5664 8.479 70.768 8.58167 70.922 8.699C71.1934 8.897 71.3804 9.128 71.483 9.392C71.5857 9.64867 71.637 9.95667 71.637 10.316C71.637 10.47 71.549 10.6203 71.373 10.767C71.2044 10.9063 71.021 10.976 70.823 10.976L70.405 10.965C70.1924 10.965 69.888 10.9723 69.492 10.987L69.261 10.998C69.0997 11.0127 68.9787 11.02 68.898 11.02C68.7807 11.02 68.6194 11.0053 68.414 10.976C68.4434 11.3207 68.5717 11.592 68.799 11.79C69.0264 11.9807 69.272 12.076 69.536 12.076C69.998 12.076 70.3207 11.9843 70.504 11.801C70.658 11.691 70.7607 11.6213 70.812 11.592C70.8634 11.5627 70.944 11.548 71.054 11.548C71.1714 11.548 71.274 11.603 71.362 11.713C71.45 11.823 71.494 11.933 71.494 12.043C71.494 12.1677 71.417 12.296 71.263 12.428C71.1164 12.5527 70.9147 12.6847 70.658 12.824C70.5187 12.8827 70.328 12.934 70.086 12.978C69.844 13.022 69.6424 13.044 69.481 13.044C69.2244 13.044 68.9384 12.9707 68.623 12.824C68.3077 12.67 68.073 12.5013 67.919 12.318C67.765 12.1347 67.6294 11.8743 67.512 11.537C67.402 11.1997 67.347 10.8477 67.347 10.481ZM69.536 10.184C70.0567 10.184 70.438 10.1657 70.68 10.129C70.6654 9.91633 70.5994 9.744 70.482 9.612C70.3647 9.47267 70.2034 9.35533 69.998 9.26C69.932 9.23067 69.8734 9.20867 69.822 9.194C69.7707 9.17933 69.712 9.172 69.646 9.172C69.3087 9.172 69.0227 9.26367 68.788 9.447C68.5607 9.63033 68.425 9.865 68.381 10.151C68.7477 10.173 69.1327 10.184 69.536 10.184ZM73.9097 11.295C73.9097 11.5737 73.9501 11.79 74.0307 11.944C74.1187 12.0907 74.2287 12.164 74.3607 12.164C74.4341 12.164 74.5037 12.1603 74.5697 12.153C74.6357 12.1383 74.7017 12.131 74.7677 12.131C74.8411 12.131 74.9034 12.1677 74.9547 12.241C75.0134 12.3143 75.0427 12.395 75.0427 12.483C75.0427 12.659 74.9584 12.7983 74.7897 12.901C74.6284 12.9963 74.4084 13.044 74.1297 13.044C73.9317 13.044 73.7301 12.9853 73.5247 12.868C73.3267 12.7433 73.1617 12.5527 73.0297 12.296C72.8977 12.032 72.8317 11.7057 72.8317 11.317C72.8317 10.481 72.8464 9.77333 72.8757 9.194C72.9124 8.50467 72.9307 7.63567 72.9307 6.587C72.9307 6.257 72.9491 6.026 72.9857 5.894C73.0297 5.79133 73.0994 5.71433 73.1947 5.663C73.2974 5.60433 73.4037 5.575 73.5137 5.575C73.6237 5.575 73.7191 5.59333 73.7997 5.63C73.8877 5.66667 73.9464 5.72533 73.9757 5.806C74.0051 5.894 74.0234 5.982 74.0307 6.07C74.0454 6.15067 74.0527 6.268 74.0527 6.422C74.0527 6.72267 74.0417 7.01233 74.0197 7.291C74.0051 7.62833 73.9977 7.874 73.9977 8.028C73.9391 9.31867 73.9097 10.4077 73.9097 11.295ZM85.6557 6.598C85.6557 7.038 85.641 7.654 85.6117 8.446C85.6043 8.63667 85.597 8.86767 85.5897 9.139C85.5823 9.403 85.5787 9.711 85.5787 10.063C85.5787 11.2143 85.641 12.0393 85.7657 12.538C85.7583 12.7213 85.6887 12.8533 85.5567 12.934C85.4247 13.0073 85.289 13.044 85.1497 13.044C84.8637 13.044 84.673 12.9413 84.5777 12.736C84.4897 12.5233 84.4457 12.2263 84.4457 11.845C84.4457 10.4297 84.4677 9.12067 84.5117 7.918C84.3723 8.19667 84.2403 8.50467 84.1157 8.842C83.9983 9.172 83.8407 9.634 83.6427 10.228C83.4373 10.8733 83.2613 11.383 83.1147 11.757C82.9753 12.131 82.8287 12.4207 82.6747 12.626C82.6307 12.648 82.5427 12.692 82.4107 12.758C82.286 12.8167 82.176 12.846 82.0807 12.846C81.9267 12.846 81.8167 12.8203 81.7507 12.769C81.6847 12.7177 81.626 12.6443 81.5747 12.549C81.5233 12.4537 81.4793 12.3767 81.4427 12.318C81.3253 12.142 81.175 11.8523 80.9917 11.449C80.8083 11.0457 80.6397 10.624 80.4857 10.184C80.427 10.03 80.372 9.88333 80.3207 9.744C80.2767 9.59733 80.2327 9.46167 80.1887 9.337C80.1007 9.073 80.0127 8.82733 79.9247 8.6C79.844 8.36533 79.7743 8.20033 79.7157 8.105C79.7157 8.49367 79.7047 8.88233 79.6827 9.271C79.668 9.74033 79.6607 10.0777 79.6607 10.283C79.6607 10.4297 79.668 10.6277 79.6827 10.877C79.7267 11.6397 79.7487 12.142 79.7487 12.384C79.7487 12.56 79.7047 12.7103 79.6167 12.835C79.5287 12.9597 79.393 13.022 79.2097 13.022C79.0117 13.022 78.8503 12.9853 78.7257 12.912C78.6083 12.8313 78.546 12.714 78.5387 12.56C78.546 12.4353 78.5497 12.2337 78.5497 11.955C78.5497 11.3903 78.5277 10.492 78.4837 9.26L78.4727 8.864C78.4727 8.58533 78.4873 8.18933 78.5167 7.676C78.524 7.55133 78.5313 7.40467 78.5387 7.236C78.546 7.06733 78.5497 6.884 78.5497 6.686C78.5497 6.45867 78.6267 6.29367 78.7807 6.191C78.9347 6.081 79.1327 6.026 79.3747 6.026C79.5213 6.026 79.668 6.06267 79.8147 6.136C79.9687 6.20933 80.0823 6.31567 80.1557 6.455C80.3023 6.75567 80.449 7.11133 80.5957 7.522C80.7423 7.92533 80.9403 8.501 81.1897 9.249C81.4243 9.96033 81.6113 10.503 81.7507 10.877C81.89 11.2437 82.0073 11.493 82.1027 11.625L82.3557 10.877C83.1843 8.347 83.7417 6.851 84.0277 6.389C84.0937 6.301 84.2073 6.224 84.3687 6.158C84.5373 6.08467 84.695 6.048 84.8417 6.048C84.9517 6.048 85.113 6.11767 85.3257 6.257C85.5457 6.389 85.6557 6.50267 85.6557 6.598ZM92.1307 12.472C92.1307 12.6333 92.0427 12.769 91.8667 12.879C91.6907 12.989 91.5294 13.044 91.3827 13.044C91.1114 13.044 90.8914 13.011 90.7227 12.945C90.5614 12.8717 90.4074 12.7397 90.2607 12.549C90.0774 12.7177 89.8207 12.846 89.4907 12.934C89.1607 13.0147 88.8564 13.055 88.5777 13.055C88.123 13.055 87.7454 12.934 87.4447 12.692C87.1514 12.4427 87.0047 12.0797 87.0047 11.603C87.0047 11.3977 87.067 11.1923 87.1917 10.987C87.3164 10.7743 87.4704 10.6057 87.6537 10.481C87.8517 10.349 88.0754 10.261 88.3247 10.217C88.574 10.1657 88.8637 10.14 89.1937 10.14C89.3477 10.14 89.531 10.1693 89.7437 10.228C89.9564 10.2867 90.125 10.349 90.2497 10.415V10.239C90.2497 9.843 90.1507 9.57167 89.9527 9.425C89.762 9.271 89.454 9.194 89.0287 9.194C88.8967 9.194 88.7757 9.216 88.6657 9.26C88.563 9.29667 88.442 9.35167 88.3027 9.425C88.1707 9.49833 88.046 9.535 87.9287 9.535C87.826 9.535 87.727 9.49467 87.6317 9.414C87.5364 9.326 87.4887 9.23433 87.4887 9.139C87.4887 8.831 87.6794 8.60733 88.0607 8.468C88.4494 8.32133 88.8454 8.248 89.2487 8.248C89.454 8.248 89.6887 8.292 89.9527 8.38C90.2167 8.46067 90.4404 8.57433 90.6237 8.721C90.8437 8.90433 91.0124 9.12433 91.1297 9.381C91.2544 9.63767 91.3167 9.91633 91.3167 10.217C91.3167 10.3123 91.3094 10.4553 91.2947 10.646C91.28 10.8513 91.2727 11.0273 91.2727 11.174L91.2617 11.471C91.247 11.6323 91.2397 11.7607 91.2397 11.856C91.2397 11.944 91.269 12.021 91.3277 12.087C91.3937 12.1457 91.4707 12.175 91.5587 12.175L91.8667 12.164C91.9474 12.164 92.0097 12.197 92.0537 12.263C92.105 12.3217 92.1307 12.3913 92.1307 12.472ZM88.5777 12.186C88.893 12.186 89.157 12.153 89.3697 12.087C89.5824 12.021 89.839 11.9 90.1397 11.724C90.169 11.5993 90.1874 11.4343 90.1947 11.229C89.7914 11.0383 89.4577 10.943 89.1937 10.943C88.9444 10.943 88.7427 10.954 88.5887 10.976C88.4347 10.9907 88.2954 11.053 88.1707 11.163C88.046 11.273 87.9837 11.449 87.9837 11.691C87.9837 11.8303 88.0497 11.9477 88.1817 12.043C88.321 12.1383 88.453 12.186 88.5777 12.186ZM97.8568 12.153C97.8935 12.1677 97.9521 12.186 98.0328 12.208C98.1135 12.23 98.1721 12.252 98.2088 12.274C98.2455 12.296 98.2638 12.329 98.2638 12.373C98.2711 12.549 98.2051 12.6957 98.0658 12.813C97.9338 12.923 97.7761 12.978 97.5928 12.978C97.3068 12.978 97.0831 12.901 96.9218 12.747C96.7605 12.593 96.6431 12.3583 96.5698 12.043C96.5405 11.9183 96.5258 11.746 96.5258 11.526C96.5258 11.4013 96.5331 11.1997 96.5478 10.921C96.5625 10.6277 96.5698 10.393 96.5698 10.217C96.5698 9.90167 96.5368 9.66333 96.4708 9.502C96.4048 9.33333 96.2471 9.249 95.9978 9.249C95.7411 9.249 95.5101 9.35167 95.3048 9.557C95.1068 9.76233 94.9381 10.0703 94.7988 10.481C94.6081 11.053 94.5018 11.812 94.4798 12.758C94.4798 12.8093 94.4248 12.8717 94.3148 12.945C94.2121 13.011 94.0875 13.044 93.9408 13.044C93.6695 13.044 93.5008 12.901 93.4348 12.615L93.4238 12.428C93.4238 12.362 93.4311 12.285 93.4458 12.197C93.5338 11.6837 93.5778 11.2363 93.5778 10.855C93.5778 10.6863 93.5741 10.5543 93.5668 10.459L93.5558 9.942C93.5558 9.766 93.5118 9.59733 93.4238 9.436C93.3358 9.26733 93.2331 9.183 93.1158 9.183C93.0791 9.183 93.0278 9.19767 92.9618 9.227C92.8958 9.249 92.8408 9.26 92.7968 9.26C92.7235 9.26 92.6428 9.22333 92.5548 9.15C92.4741 9.07667 92.4338 8.99967 92.4338 8.919C92.4338 8.765 92.4851 8.64033 92.5878 8.545C92.6978 8.457 92.8041 8.38733 92.9068 8.336C93.0168 8.28467 93.1415 8.259 93.2808 8.259C93.3981 8.259 93.4935 8.27 93.5668 8.292C93.6401 8.314 93.7391 8.36167 93.8638 8.435C93.9371 8.47167 94.0215 8.57433 94.1168 8.743C94.2121 8.91167 94.2855 9.15 94.3368 9.458C94.4835 9.18667 94.7291 8.90067 95.0738 8.6C95.3305 8.36533 95.7008 8.248 96.1848 8.248C96.6248 8.248 96.9731 8.40933 97.2298 8.732C97.4865 9.04733 97.6148 9.48367 97.6148 10.041C97.6148 10.151 97.6075 10.3307 97.5928 10.58C97.5708 10.778 97.5598 10.987 97.5598 11.207C97.5598 11.7203 97.6588 12.0357 97.8568 12.153ZM104.087 12.472C104.087 12.6333 103.999 12.769 103.823 12.879C103.654 12.989 103.497 13.044 103.35 13.044C103.071 13.044 102.848 13.011 102.679 12.945C102.518 12.8717 102.367 12.7397 102.228 12.549C102.037 12.7177 101.777 12.846 101.447 12.934C101.117 13.0147 100.813 13.055 100.534 13.055C100.079 13.055 99.7054 12.934 99.412 12.692C99.1187 12.4427 98.972 12.0797 98.972 11.603C98.972 11.3977 99.027 11.2107 99.137 11.042C99.247 10.866 99.3974 10.712 99.588 10.58C99.8007 10.4407 100.043 10.3343 100.314 10.261C100.585 10.1803 100.868 10.14 101.161 10.14C101.315 10.14 101.498 10.1693 101.711 10.228C101.924 10.2867 102.089 10.349 102.206 10.415V10.239C102.206 9.843 102.111 9.57167 101.92 9.425C101.729 9.271 101.421 9.194 100.996 9.194C100.871 9.194 100.747 9.21967 100.622 9.271C100.505 9.32233 100.369 9.392 100.215 9.48C100.01 9.59 99.8154 9.645 99.632 9.645C99.566 9.645 99.5037 9.601 99.445 9.513C99.3864 9.41767 99.357 9.33333 99.357 9.26C99.357 9.04733 99.456 8.864 99.654 8.71C99.8594 8.556 100.101 8.44233 100.38 8.369C100.659 8.28833 100.908 8.248 101.128 8.248C101.348 8.248 101.601 8.292 101.887 8.38C102.173 8.46067 102.408 8.57433 102.591 8.721C102.811 8.91167 102.98 9.13533 103.097 9.392C103.222 9.64133 103.284 9.91633 103.284 10.217C103.284 10.3123 103.277 10.4553 103.262 10.646C103.247 10.8513 103.24 11.0273 103.24 11.174C103.24 11.24 103.233 11.339 103.218 11.471C103.203 11.6323 103.196 11.7607 103.196 11.856C103.196 11.944 103.229 12.021 103.295 12.087C103.361 12.1457 103.438 12.175 103.526 12.175L103.834 12.164C103.915 12.164 103.977 12.1933 104.021 12.252C104.065 12.3107 104.087 12.384 104.087 12.472ZM100.545 12.186C100.86 12.186 101.124 12.153 101.337 12.087C101.55 12.021 101.806 11.9 102.107 11.724C102.136 11.5993 102.155 11.4343 102.162 11.229C101.759 11.0383 101.425 10.943 101.161 10.943C100.86 10.943 100.593 10.998 100.358 11.108C100.123 11.218 100.006 11.4123 100.006 11.691C100.006 11.8303 100.065 11.9477 100.182 12.043C100.299 12.1383 100.42 12.186 100.545 12.186ZM108.789 12.978C108.987 13.1173 109.119 13.2713 109.185 13.44C109.259 13.6087 109.295 13.8433 109.295 14.144C109.295 14.2907 109.251 14.4373 109.163 14.584C109.083 14.7307 108.998 14.837 108.91 14.903C108.214 15.2843 107.517 15.475 106.82 15.475C106.476 15.475 106.179 15.431 105.929 15.343C105.68 15.255 105.445 15.1377 105.225 14.991C105.079 14.881 104.958 14.727 104.862 14.529C104.774 14.3383 104.73 14.1477 104.73 13.957C104.73 13.693 104.811 13.462 104.972 13.264C105.141 13.066 105.365 12.923 105.643 12.835C105.592 12.725 105.566 12.5967 105.566 12.45C105.566 12.3107 105.669 12.1017 105.874 11.823C105.522 11.7057 105.244 11.4967 105.038 11.196C104.84 10.8953 104.741 10.5433 104.741 10.14C104.741 9.89067 104.8 9.67067 104.917 9.48C105.035 9.282 105.211 9.05467 105.445 8.798C105.607 8.622 105.812 8.49367 106.061 8.413C106.311 8.33233 106.622 8.292 106.996 8.292C107.26 8.292 107.587 8.35067 107.975 8.468C108.437 8.14533 108.844 7.984 109.196 7.984C109.284 7.984 109.383 8.006 109.493 8.05C109.611 8.094 109.699 8.138 109.757 8.182C109.801 8.26267 109.823 8.39833 109.823 8.589C109.823 8.66233 109.79 8.73567 109.724 8.809C109.666 8.875 109.589 8.908 109.493 8.908L109.229 8.897C109.097 8.88233 108.995 8.875 108.921 8.875C108.841 8.875 108.72 8.88233 108.558 8.897C108.712 9.08033 108.83 9.27467 108.91 9.48C108.998 9.68533 109.042 9.953 109.042 10.283C109.042 10.5323 108.951 10.7927 108.767 11.064C108.584 11.3353 108.368 11.548 108.118 11.702C107.737 11.9073 107.293 12.0137 106.787 12.021C106.729 12.0797 106.677 12.1347 106.633 12.186C106.597 12.23 106.578 12.2667 106.578 12.296C106.578 12.3767 106.648 12.439 106.787 12.483C106.927 12.527 107.139 12.56 107.425 12.582C107.645 12.5967 107.887 12.6443 108.151 12.725C108.423 12.7983 108.635 12.8827 108.789 12.978ZM106.853 11.119C107.191 11.119 107.462 11.0273 107.667 10.844C107.873 10.6607 107.975 10.4003 107.975 10.063C107.975 9.80633 107.884 9.59733 107.7 9.436C107.517 9.27467 107.282 9.194 106.996 9.194C106.813 9.194 106.615 9.227 106.402 9.293C106.197 9.35167 106.05 9.447 105.962 9.579C105.918 9.63767 105.874 9.75133 105.83 9.92C105.786 10.0813 105.764 10.206 105.764 10.294C105.764 10.4187 105.816 10.547 105.918 10.679C106.028 10.8037 106.168 10.91 106.336 10.998C106.512 11.0787 106.685 11.119 106.853 11.119ZM107.546 13.506C107.143 13.4693 106.857 13.4327 106.688 13.396C106.527 13.3667 106.395 13.33 106.292 13.286C105.918 13.484 105.731 13.7003 105.731 13.935C105.731 14.155 105.845 14.32 106.072 14.43C106.3 14.5473 106.56 14.606 106.853 14.606C106.985 14.606 107.165 14.5913 107.392 14.562C107.62 14.5327 107.81 14.4813 107.964 14.408C108.067 14.3567 108.144 14.3053 108.195 14.254C108.247 14.21 108.272 14.1257 108.272 14.001C108.272 13.847 108.192 13.7297 108.03 13.649C107.869 13.5683 107.708 13.5207 107.546 13.506ZM110.348 10.481C110.348 10.0337 110.447 9.66333 110.645 9.37C110.843 9.06933 111.118 8.787 111.47 8.523C111.573 8.44967 111.745 8.38733 111.987 8.336C112.229 8.27733 112.442 8.248 112.625 8.248C112.845 8.248 113.076 8.29567 113.318 8.391C113.567 8.479 113.769 8.58167 113.923 8.699C114.194 8.897 114.381 9.128 114.484 9.392C114.587 9.64867 114.638 9.95667 114.638 10.316C114.638 10.47 114.55 10.6203 114.374 10.767C114.205 10.9063 114.022 10.976 113.824 10.976L113.406 10.965C113.193 10.965 112.889 10.9723 112.493 10.987L112.262 10.998C112.101 11.0127 111.98 11.02 111.899 11.02C111.782 11.02 111.62 11.0053 111.415 10.976C111.444 11.3207 111.573 11.592 111.8 11.79C112.027 11.9807 112.273 12.076 112.537 12.076C112.999 12.076 113.322 11.9843 113.505 11.801C113.659 11.691 113.762 11.6213 113.813 11.592C113.864 11.5627 113.945 11.548 114.055 11.548C114.172 11.548 114.275 11.603 114.363 11.713C114.451 11.823 114.495 11.933 114.495 12.043C114.495 12.1677 114.418 12.296 114.264 12.428C114.117 12.5527 113.916 12.6847 113.659 12.824C113.52 12.8827 113.329 12.934 113.087 12.978C112.845 13.022 112.643 13.044 112.482 13.044C112.225 13.044 111.939 12.9707 111.624 12.824C111.309 12.67 111.074 12.5013 110.92 12.318C110.766 12.1347 110.63 11.8743 110.513 11.537C110.403 11.1997 110.348 10.8477 110.348 10.481ZM112.537 10.184C113.058 10.184 113.439 10.1657 113.681 10.129C113.666 9.91633 113.6 9.744 113.483 9.612C113.366 9.47267 113.204 9.35533 112.999 9.26C112.933 9.23067 112.874 9.20867 112.823 9.194C112.772 9.17933 112.713 9.172 112.647 9.172C112.31 9.172 112.024 9.26367 111.789 9.447C111.562 9.63033 111.426 9.865 111.382 10.151C111.749 10.173 112.134 10.184 112.537 10.184ZM115.668 9.216C115.484 9.062 115.393 8.88233 115.393 8.677C115.393 8.57433 115.444 8.48267 115.547 8.402C115.649 8.314 115.774 8.27 115.921 8.27C116.185 8.27 116.401 8.33967 116.57 8.479C116.738 8.61833 116.885 8.82 117.01 9.084C117.164 8.798 117.358 8.589 117.593 8.457C117.835 8.31767 118.139 8.248 118.506 8.248C118.726 8.248 118.902 8.27733 119.034 8.336C119.173 8.38733 119.287 8.46433 119.375 8.567C119.463 8.66233 119.573 8.809 119.705 9.007C119.895 8.77233 120.134 8.589 120.42 8.457C120.713 8.325 121.014 8.259 121.322 8.259C121.681 8.259 122.007 8.40933 122.301 8.71C122.601 9.01067 122.803 9.35167 122.906 9.733C122.942 9.89433 122.968 10.2757 122.983 10.877L123.027 11.515C123.063 11.9037 123.188 12.1347 123.401 12.208C123.503 12.2373 123.588 12.274 123.654 12.318C123.727 12.3547 123.764 12.395 123.764 12.439C123.778 12.615 123.738 12.7433 123.643 12.824C123.577 12.868 123.485 12.9157 123.368 12.967C123.25 13.0183 123.159 13.044 123.093 13.044C122.697 13.044 122.414 12.901 122.246 12.615C122.136 12.4243 122.066 12.208 122.037 11.966C122.007 11.7167 121.993 11.3793 121.993 10.954C121.993 10.4993 121.938 10.1107 121.828 9.788C121.718 9.458 121.468 9.293 121.08 9.293C120.94 9.293 120.801 9.337 120.662 9.425C120.53 9.50567 120.434 9.60833 120.376 9.733C120.273 9.931 120.203 10.1473 120.167 10.382C120.13 10.6093 120.112 10.8733 120.112 11.174C120.112 11.3647 120.123 11.559 120.145 11.757C120.145 11.8157 120.148 11.911 120.156 12.043C120.17 12.1677 120.178 12.2813 120.178 12.384C120.178 12.5673 120.141 12.725 120.068 12.857C120.002 12.9817 119.884 13.044 119.716 13.044C119.312 13.044 119.1 12.8313 119.078 12.406C119.078 12.1053 119.081 11.944 119.089 11.922V11.449C119.089 11.185 119.078 10.9283 119.056 10.679C119.034 10.4297 119.008 10.2427 118.979 10.118C118.913 9.876 118.825 9.689 118.715 9.557C118.605 9.425 118.436 9.359 118.209 9.359C118.055 9.359 117.912 9.39567 117.78 9.469C117.648 9.54233 117.534 9.645 117.439 9.777C117.299 9.997 117.208 10.2647 117.164 10.58C117.12 10.9833 117.087 11.3023 117.065 11.537C117.05 11.7643 117.043 12.0283 117.043 12.329C117.043 12.5417 117.006 12.714 116.933 12.846C116.867 12.978 116.738 13.044 116.548 13.044C116.408 13.044 116.262 13.0073 116.108 12.934C115.961 12.8533 115.888 12.747 115.888 12.615C115.888 12.4757 115.902 12.3363 115.932 12.197C115.998 11.779 116.031 11.0677 116.031 10.063C116.031 9.90167 115.994 9.744 115.921 9.59C115.855 9.42867 115.77 9.304 115.668 9.216ZM124.442 10.514C124.442 10.25 124.49 10.0043 124.585 9.777C124.681 9.54233 124.82 9.30033 125.003 9.051C125.187 8.80167 125.44 8.60733 125.762 8.468C126.085 8.32133 126.437 8.248 126.818 8.248C127.112 8.248 127.394 8.31033 127.665 8.435C127.944 8.55233 128.193 8.699 128.413 8.875C128.443 8.92633 128.494 9.02167 128.567 9.161C128.641 9.293 128.692 9.414 128.721 9.524C128.758 9.634 128.776 9.74767 128.776 9.865C128.776 10.3563 128.597 10.6863 128.237 10.855C127.878 11.0163 127.423 11.097 126.873 11.097C126.323 11.097 125.876 11.0603 125.531 10.987C125.546 11.1263 125.583 11.2657 125.641 11.405C125.7 11.5443 125.77 11.6507 125.85 11.724C125.997 11.8633 126.14 11.955 126.279 11.999C126.426 12.0357 126.62 12.054 126.862 12.054C127.229 12.054 127.515 11.9843 127.72 11.845C127.911 11.7203 128.058 11.658 128.16 11.658C128.3 11.658 128.406 11.702 128.479 11.79C128.553 11.8707 128.589 11.977 128.589 12.109C128.589 12.3877 128.41 12.615 128.05 12.791C127.698 12.967 127.299 13.055 126.851 13.055C126.499 13.055 126.151 12.9927 125.806 12.868C125.462 12.7433 125.187 12.5673 124.981 12.34C124.842 12.1053 124.717 11.8193 124.607 11.482C124.497 11.1447 124.442 10.822 124.442 10.514ZM126.862 9.15C126.701 9.15 126.532 9.17933 126.356 9.238C126.188 9.28933 126.056 9.37 125.96 9.48C125.843 9.60467 125.755 9.71833 125.696 9.821C125.645 9.92367 125.612 10.052 125.597 10.206C125.678 10.206 125.755 10.2097 125.828 10.217C125.902 10.2243 125.971 10.2317 126.037 10.239C126.36 10.2683 126.602 10.283 126.763 10.283C127.086 10.283 127.332 10.2353 127.5 10.14C127.676 10.0447 127.764 9.91633 127.764 9.755C127.764 9.601 127.665 9.46167 127.467 9.337C127.277 9.21233 127.075 9.15 126.862 9.15ZM134.853 12.153C134.89 12.1677 134.948 12.186 135.029 12.208C135.11 12.23 135.168 12.252 135.205 12.274C135.242 12.296 135.26 12.329 135.26 12.373C135.267 12.549 135.201 12.6957 135.062 12.813C134.93 12.923 134.772 12.978 134.589 12.978C134.303 12.978 134.079 12.901 133.918 12.747C133.757 12.593 133.639 12.3583 133.566 12.043C133.537 11.9183 133.522 11.746 133.522 11.526C133.522 11.4013 133.529 11.1997 133.544 10.921C133.559 10.6277 133.566 10.393 133.566 10.217C133.566 9.90167 133.533 9.66333 133.467 9.502C133.401 9.33333 133.243 9.249 132.994 9.249C132.737 9.249 132.506 9.35167 132.301 9.557C132.103 9.76233 131.934 10.0703 131.795 10.481C131.604 11.053 131.498 11.812 131.476 12.758C131.476 12.8093 131.421 12.8717 131.311 12.945C131.208 13.011 131.084 13.044 130.937 13.044C130.666 13.044 130.497 12.901 130.431 12.615L130.42 12.428C130.42 12.362 130.427 12.285 130.442 12.197C130.53 11.6837 130.574 11.2363 130.574 10.855C130.574 10.6863 130.57 10.5543 130.563 10.459L130.552 9.942C130.552 9.766 130.508 9.59733 130.42 9.436C130.332 9.26733 130.229 9.183 130.112 9.183C130.075 9.183 130.024 9.19767 129.958 9.227C129.892 9.249 129.837 9.26 129.793 9.26C129.72 9.26 129.639 9.22333 129.551 9.15C129.47 9.07667 129.43 8.99967 129.43 8.919C129.43 8.765 129.481 8.64033 129.584 8.545C129.694 8.457 129.8 8.38733 129.903 8.336C130.013 8.28467 130.138 8.259 130.277 8.259C130.394 8.259 130.49 8.27 130.563 8.292C130.636 8.314 130.735 8.36167 130.86 8.435C130.933 8.47167 131.018 8.57433 131.113 8.743C131.208 8.91167 131.282 9.15 131.333 9.458C131.48 9.18667 131.725 8.90067 132.07 8.6C132.327 8.36533 132.697 8.248 133.181 8.248C133.621 8.248 133.969 8.40933 134.226 8.732C134.483 9.04733 134.611 9.48367 134.611 10.041C134.611 10.151 134.604 10.3307 134.589 10.58C134.567 10.778 134.556 10.987 134.556 11.207C134.556 11.7203 134.655 12.0357 134.853 12.153ZM136.078 9.194C135.975 9.17933 135.891 9.13533 135.825 9.062C135.766 8.98867 135.737 8.90067 135.737 8.798C135.737 8.74667 135.748 8.69167 135.77 8.633C135.799 8.57433 135.84 8.523 135.891 8.479C135.986 8.38367 136.243 8.336 136.661 8.336C136.72 8.05 136.749 7.76033 136.749 7.467C136.749 7.357 136.745 7.26167 136.738 7.181C136.731 7.10033 136.727 7.038 136.727 6.994C136.727 6.83267 136.786 6.71167 136.903 6.631C137.028 6.55033 137.167 6.51 137.321 6.51C137.512 6.51 137.64 6.55767 137.706 6.653C137.779 6.74833 137.816 6.92433 137.816 7.181C137.816 7.56233 137.783 7.93633 137.717 8.303C137.834 8.303 137.996 8.29567 138.201 8.281C138.48 8.26633 138.681 8.259 138.806 8.259C138.931 8.259 139.037 8.292 139.125 8.358C139.22 8.41667 139.268 8.501 139.268 8.611C139.268 8.897 139.14 9.06567 138.883 9.117C138.612 9.183 138.19 9.22333 137.618 9.238C137.596 9.524 137.585 9.83567 137.585 10.173C137.585 10.701 137.618 11.1337 137.684 11.471C137.728 11.7057 137.801 11.878 137.904 11.988C138.014 12.0907 138.175 12.142 138.388 12.142C138.513 12.142 138.641 12.109 138.773 12.043C138.861 11.9917 138.942 11.966 139.015 11.966C139.118 11.966 139.191 11.999 139.235 12.065C139.286 12.131 139.312 12.219 139.312 12.329C139.312 12.5343 139.202 12.7067 138.982 12.846C138.762 12.978 138.48 13.044 138.135 13.044C137.922 13.044 137.706 12.9927 137.486 12.89C137.273 12.7873 137.094 12.659 136.947 12.505C136.925 12.483 136.885 12.3987 136.826 12.252C136.767 12.1053 136.716 11.9477 136.672 11.779C136.599 11.4343 136.562 10.9503 136.562 10.327C136.562 10.0557 136.577 9.69267 136.606 9.238L136.078 9.194Z" fill="#FF5858"/>
</svg>
