<svg width="44" height="14" viewBox="0 0 44 14" fill="none" xmlns="http://www.w3.org/2000/svg">
<path d="M11.98 0.359999C12.1667 0.359999 12.3933 0.486666 12.66 0.739999C12.94 0.979999 13.08 1.18667 13.08 1.36C13.08 2.17333 13.0533 3.28667 13 4.7C12.9867 5.04667 12.9733 5.46667 12.96 5.96C12.9467 6.44 12.94 7 12.94 7.64C12.94 9.66667 13.06 11.16 13.3 12.12C13.2867 12.44 13.16 12.6733 12.92 12.82C12.68 12.9533 12.44 13.02 12.2 13.02C11.6667 13.02 11.3133 12.8333 11.14 12.46C10.98 12.0867 10.9 11.5533 10.9 10.86C10.9 8.28667 10.9267 5.92 10.98 3.76C9.44667 5.46667 8.25333 6.9 7.4 8.06C7.4 8.06 7.28 8.14 7.04 8.3C6.81333 8.5 6.62667 8.6 6.48 8.6C6.13333 8.6 5.84667 8.51333 5.62 8.34C5.39333 8.16667 5.17333 7.91333 4.96 7.58L4 6.22C3.33333 5.28667 2.84667 4.58 2.54 4.1C2.54 5.32667 2.6 6.99333 2.72 9.1C2.81333 10.3133 2.86 11.2267 2.86 11.84C2.86 12.16 2.78 12.4333 2.62 12.66C2.46 12.8733 2.20667 12.98 1.86 12.98C1.51333 12.98 1.22667 12.9133 1 12.78C0.786667 12.6467 0.673333 12.4467 0.66 12.18C0.673333 11.9533 0.68 11.58 0.68 11.06C0.68 10.02 0.646667 8.75333 0.58 7.26L0.54 6.18L0.5 4.78C0.486667 4.36667 0.473333 3.88667 0.46 3.34C0.446667 2.78 0.44 2.17333 0.44 1.52C0.44 0.72 0.873333 0.32 1.74 0.32C2.00667 0.32 2.27333 0.386667 2.54 0.52C2.82 0.653333 3.02667 0.846666 3.16 1.1C3.26667 1.56667 3.66 2.34 4.34 3.42C5.02 4.5 5.68667 5.51333 6.34 6.46C6.92667 5.71333 7.40667 5.15333 7.78 4.78C8.42 4.12667 8.94667 3.52 9.36 2.96C9.78667 2.4 10.2467 1.72667 10.74 0.939999C10.86 0.78 11.0333 0.646666 11.26 0.539999C11.4867 0.419999 11.7267 0.359999 11.98 0.359999ZM26.5627 8.96C26.5627 9.70667 26.276 10.42 25.7027 11.1C25.1427 11.7667 24.4293 12.2933 23.5627 12.68C23.1893 12.8 22.716 12.9 22.1427 12.98C21.5693 13.0467 20.9893 13.0867 20.4027 13.1C19.256 13.1 18.1893 12.94 17.2027 12.62C17.0293 12.58 16.8293 12.4667 16.6027 12.28C16.376 12.0933 16.2693 11.8467 16.2827 11.54V10.86C16.2827 10.1133 16.2627 9.39333 16.2227 8.7C16.196 7.79333 16.1827 7.1 16.1827 6.62L16.1627 4.36C16.1627 3.56 16.1893 2.75333 16.2427 1.94C16.256 1.52667 16.4093 1.18 16.7027 0.9C17.0093 0.606666 17.3893 0.426666 17.8427 0.359999C18.016 0.346666 18.3293 0.34 18.7827 0.34L20.7027 0.359999C21.6227 0.359999 22.4427 0.479999 23.1627 0.72C23.8827 0.96 24.5027 1.34667 25.0227 1.88C25.196 2.08 25.336 2.34667 25.4427 2.68C25.5493 3 25.6027 3.31333 25.6027 3.62C25.5627 4.7 24.9427 5.58 23.7427 6.26C24.7027 6.38 25.4093 6.68 25.8627 7.16C26.3293 7.64 26.5627 8.24 26.5627 8.96ZM19.0027 5.78C19.136 5.76667 19.3493 5.76 19.6427 5.76H20.5427C20.9427 5.76 21.2227 5.74667 21.3827 5.72C22.7427 5.41333 23.4227 4.87333 23.4227 4.1C23.4227 3.9 23.3893 3.68667 23.3227 3.46C23.2693 3.23333 23.196 3.07333 23.1027 2.98C22.756 2.64667 22.4293 2.43333 22.1227 2.34C21.816 2.23333 21.3627 2.18 20.7627 2.18C19.6027 2.18 18.7693 2.24 18.2627 2.36L18.2827 5.8L19.0027 5.78ZM19.9227 11.42C21.3093 11.42 22.396 11.2467 23.1827 10.9C23.9827 10.5533 24.3827 9.87333 24.3827 8.86C24.3827 8.46 24.0893 8.13333 23.5027 7.88C22.916 7.61333 22.276 7.48 21.5827 7.48C20.7293 7.48 20.1293 7.5 19.7827 7.54C19.4893 7.56667 19.2893 7.58 19.1827 7.58C18.9827 7.58 18.8427 7.57333 18.7627 7.56C18.696 7.56 18.616 7.56 18.5227 7.56C18.4427 7.54667 18.356 7.54667 18.2627 7.56L18.2827 8.22C18.296 8.38 18.316 8.82 18.3427 9.54C18.3827 10.2467 18.3893 10.7467 18.3627 11.04C18.6693 11.1733 18.936 11.2733 19.1627 11.34C19.3893 11.3933 19.6427 11.42 19.9227 11.42ZM39.5794 11.88C39.7127 11.9467 39.8127 12.0333 39.8794 12.14C39.9594 12.2467 39.9994 12.4 39.9994 12.6C39.9994 12.8533 39.8994 13.0533 39.6994 13.2C39.4994 13.36 39.2794 13.44 39.0394 13.44C38.746 13.44 38.4127 13.3667 38.0394 13.22C37.2927 12.8867 36.5394 12.2067 35.7794 11.18C35.0194 10.14 34.186 8.77333 33.2794 7.08C32.5194 7.66667 31.746 8.21333 30.9594 8.72C30.9594 9 30.966 9.32667 30.9794 9.7C31.006 10.06 31.0194 10.3267 31.0194 10.5C31.046 11.2733 31.0594 11.7867 31.0594 12.04C31.0594 12.2667 30.986 12.4867 30.8394 12.7C30.6927 12.9 30.4727 13 30.1794 13C29.7527 13 29.446 12.9333 29.2594 12.8C29.0727 12.6533 28.9594 12.4467 28.9194 12.18C28.8127 11.5133 28.7594 10.8733 28.7594 10.26C28.7594 9.56667 28.8127 8.56667 28.9194 7.26C29.026 6.00667 29.0794 5.06667 29.0794 4.44C29.0794 4.2 29.066 3.85333 29.0394 3.4C29.026 3.04 28.986 2.70667 28.9194 2.4C28.866 1.97333 28.8394 1.67333 28.8394 1.5C28.8394 1.07333 28.9327 0.766666 29.1194 0.579999C29.306 0.393332 29.5927 0.299999 29.9794 0.299999C30.2727 0.299999 30.5127 0.386666 30.6994 0.559999C30.8994 0.72 31.0127 0.94 31.0394 1.22C31.106 2.35333 31.1394 3.22667 31.1394 3.84C31.126 4.17333 31.0994 4.65333 31.0594 5.28C31.0327 5.89333 31.006 6.28 30.9794 6.44C31.4327 6.18667 32.3194 5.46 33.6394 4.26C34.9727 3.04667 35.9194 2.09333 36.4794 1.4L36.7394 1.1C36.9527 0.819999 37.1327 0.626666 37.2794 0.52C37.426 0.413333 37.626 0.359999 37.8794 0.359999C38.1327 0.359999 38.3594 0.446666 38.5594 0.62C38.7727 0.779999 38.8794 0.973332 38.8794 1.2C38.8794 1.64 38.6527 2.08667 38.1994 2.54C37.0927 3.68667 35.986 4.75333 34.8794 5.74C35.666 7.22 36.4327 8.49333 37.1794 9.56C37.9394 10.6133 38.7394 11.3867 39.5794 11.88ZM43.9728 11.9C43.9728 12.2333 43.8395 12.5467 43.5728 12.84C43.3061 13.12 43.0128 13.26 42.6928 13.26C42.3195 13.26 41.9795 13.16 41.6728 12.96C41.3661 12.7467 41.2128 12.48 41.2128 12.16C41.2128 11.6533 41.3061 11.28 41.4928 11.04C41.6928 10.8 41.9861 10.68 42.3728 10.68C42.8261 10.68 43.2061 10.7933 43.5128 11.02C43.8195 11.2333 43.9728 11.5267 43.9728 11.9Z" fill="#FF5858"/>
</svg>
